RobotoCondensed-Bold.ufo
<glyph name="plus" format="2">
  <advance width="973"/>
  <unicode hex="002B"/>
  <outline>
    <contour>
      <point x="903" y="817" type="line"/>
      <point x="65" y="817" type="line"/>
      <point x="65" y="554" type="line"/>
      <point x="903" y="554" type="line"/>
    </contour>
    <contour>
      <point x="620" y="1206" type="line"/>
      <point x="353" y="1206" type="line"/>
      <point x="353" y="146" type="line"/>
      <point x="620" y="146" type="line"/>
    </contour>
  </outline>
</glyph>
<glyph name="five" format="2">
  <advance width="1036"/>
  <unicode hex="0035"/>
  <guideline x="0.0" y="1658.0" angle="0.0" identifier="Leuieq5rEO"/>
  <guideline x="0.0" y="1743.0" angle="0.0" identifier="6SThHAo8Q9"/>
  <outline>
    <contour>
      <point x="349" y="659" type="line"/>
      <point x="376" y="698"/>
      <point x="411" y="739"/>
      <point x="492" y="739" type="curve"/>
      <point x="611" y="739"/>
      <point x="664" y="637"/>
      <point x="664" y="485" type="curve" smooth="yes"/>
      <point x="664" y="334"/>
      <point x="626" y="215"/>
      <point x="519" y="215" type="curve" smooth="yes"/>
      <point x="438" y="215"/>
      <point x="384" y="287"/>
      <point x="375" y="406" type="curve"/>
      <point x="95" y="406" type="line"/>
      <point x="98" y="137"/>
      <point x="305" y="-20"/>
      <point x="520" y="-20" type="curve" smooth="yes"/>
      <point x="808" y="-20"/>
      <point x="947" y="210"/>
      <point x="947" y="468" type="curve" smooth="yes"/>
      <point x="947" y="776"/>
      <point x="813" y="957"/>
      <point x="571" y="957" type="curve"/>
      <point x="496" y="957"/>
      <point x="433" y="924"/>
      <point x="402" y="903" type="curve"/>
      <point x="429" y="1214" type="line"/>
      <point x="901" y="1214" type="line"/>
      <point x="901" y="1456" type="line"/>
      <point x="197" y="1456" type="line"/>
      <point x="124" y="716" type="line"/>
    </contour>
  </outline>
</glyph>
<glyph name="D" format="2">
  <advance width="1157"/>
  <unicode hex="0044"/>
  <guideline x="0.0" y="901.0" angle="0.0" identifier="ap3tPTMGuu"/>
  <guideline x="0.0" y="555.0" angle="0.0" identifier="4xTrBCg5sE"/>
  <anchor x="450" y="1603" name="top"/>
  <anchor x="451" y="10" name="bottom"/>
  <anchor x="1137" y="1600" name="top_dd"/>
  <anchor x="1137" y="-407" name="bottom_dd"/>
  <anchor x="1137" y="1603" name="top0315"/>
  <anchor x="450" y="1603" name="parent_top"/>
  <outline>
    <contour>
      <point x="499" y="0" type="line"/>
      <point x="840" y="0"/>
      <point x="1063" y="224"/>
      <point x="1063" y="615" type="curve"/>
      <point x="1063" y="840" type="line"/>
      <point x="1063" y="1232"/>
      <point x="839" y="1456"/>
      <point x="502" y="1456" type="curve"/>
      <point x="236" y="1456" type="line"/>
      <point x="236" y="1211" type="line"/>
      <point x="502" y="1211" type="line"/>
      <point x="707" y="1211"/>
      <point x="769" y="1109"/>
      <point x="769" y="842" type="curve"/>
      <point x="769" y="615" type="line" smooth="yes"/>
      <point x="769" y="350"/>
      <point x="708" y="244"/>
      <point x="499" y="244" type="curve"/>
      <point x="243" y="244" type="line"/>
      <point x="241" y="0" type="line"/>
    </contour>
    <contour>
      <point x="412" y="1456" type="line"/>
      <point x="117" y="1456" type="line"/>
      <point x="117" y="0" type="line"/>
      <point x="412" y="0" type="line"/>
    </contour>
  </outline>
</glyph>
<glyph name="Y" format="2">
  <advance width="1112"/>
  <unicode hex="0059"/>
  <guideline x="0.0" y="901.0" angle="0.0" identifier="WLe9xiaQpX"/>
  <guideline x="0.0" y="555.0" angle="0.0" identifier="r3O5mbZuMr"/>
  <anchor x="558" y="1600" name="top"/>
  <anchor x="554" y="35" name="bottom"/>
  <anchor x="1092" y="1600" name="top_dd"/>
  <anchor x="1092" y="-407" name="bottom_dd"/>
  <anchor x="1092" y="1600" name="top0315"/>
  <anchor x="558" y="1600" name="parent_top"/>
  <outline>
    <contour>
      <point x="336" y="1456" type="line"/>
      <point x="16" y="1456" type="line"/>
      <point x="407" y="528" type="line"/>
      <point x="407" y="0" type="line"/>
      <point x="705" y="0" type="line"/>
      <point x="705" y="528" type="line"/>
      <point x="1096" y="1456" type="line"/>
      <point x="775" y="1456" type="line"/>
      <point x="556" y="802" type="line"/>
    </contour>
  </outline>
</glyph>
<glyph name="bracketright" format="2">
  <advance width="540"/>
  <unicode hex="005D"/>
  <outline>
    <contour>
      <point x="35" y="1471" type="line"/>
      <point x="141" y="1471" type="line"/>
      <point x="141" y="-116" type="line"/>
      <point x="35" y="-116" type="line"/>
      <point x="35" y="-340" type="line"/>
      <point x="423" y="-340" type="line"/>
      <point x="423" y="1696" type="line"/>
      <point x="35" y="1696" type="line"/>
    </contour>
  </outline>
</glyph>
<glyph name="ordfeminine" format="2">
  <advance width="805"/>
  <unicode hex="00AA"/>
  <guideline x="0.0" y="1681.0" angle="0.0" identifier="U6eOsikA5M"/>
  <guideline x="0.0" y="909.0" angle="0.0" identifier="kjJYrT8JQk"/>
  <outline>
    <contour>
      <point x="495" y="861" type="line"/>
      <point x="495" y="806"/>
      <point x="502" y="752"/>
      <point x="516" y="705" type="curve"/>
      <point x="683" y="705" type="line"/>
      <point x="667" y="763"/>
      <point x="662" y="821"/>
      <point x="662" y="886" type="curve" smooth="yes"/>
      <point x="662" y="1200" type="line"/>
      <point x="662" y="1383"/>
      <point x="562" y="1476"/>
      <point x="411" y="1476" type="curve" smooth="yes"/>
      <point x="251" y="1476"/>
      <point x="147" y="1378"/>
      <point x="147" y="1243" type="curve"/>
      <point x="311" y="1229" type="line"/>
      <point x="311" y="1293"/>
      <point x="348" y="1328"/>
      <point x="411" y="1328" type="curve" smooth="yes"/>
      <point x="468" y="1328"/>
      <point x="495" y="1283"/>
      <point x="495" y="1201" type="curve"/>
    </contour>
    <contour>
      <point x="536" y="1150" type="line"/>
      <point x="421" y="1150" type="line"/>
      <point x="223" y="1150"/>
      <point x="131" y="1066"/>
      <point x="131" y="919" type="curve" smooth="yes"/>
      <point x="131" y="781"/>
      <point x="206" y="691"/>
      <point x="340" y="691" type="curve" smooth="yes"/>
      <point x="454" y="691"/>
      <point x="514" y="769"/>
      <point x="539" y="833" type="curve"/>
      <point x="525" y="950" type="line"/>
      <point x="525" y="901"/>
      <point x="445" y="835"/>
      <point x="383" y="835" type="curve" smooth="yes"/>
      <point x="325" y="835"/>
      <point x="297" y="868"/>
      <point x="297" y="923" type="curve" smooth="yes"/>
      <point x="297" y="981"/>
      <point x="332" y="1033"/>
      <point x="421" y="1033" type="curve"/>
      <point x="537" y="1033" type="line"/>
    </contour>
  </outline>
</glyph>
<glyph name="periodcentered" format="2">
  <advance width="584"/>
  <unicode hex="00B7"/>
  <guideline x="0.0" y="901.0" angle="0.0" identifier="7jbwLONkJW"/>
  <guideline x="0.0" y="555.0" angle="0.0" identifier="IyY4TEGJff"/>
  <outline>
    <contour>
      <point x="132" y="697" type="curve" smooth="yes"/>
      <point x="132" y="609"/>
      <point x="192" y="541"/>
      <point x="287" y="541" type="curve" smooth="yes"/>
      <point x="383" y="541"/>
      <point x="443" y="609"/>
      <point x="443" y="697" type="curve" smooth="yes"/>
      <point x="443" y="785"/>
      <point x="383" y="853"/>
      <point x="287" y="853" type="curve" smooth="yes"/>
      <point x="192" y="853"/>
      <point x="132" y="785"/>
    </contour>
  </outline>
</glyph>
<glyph name="Nhook" format="2">
  <advance width="1356"/>
  <unicode hex="019D"/>
  <outline>
    <contour>
      <point x="218" y="869" type="line"/>
      <point x="218" y="-34" type="line" smooth="yes"/>
      <point x="218" y="-143"/>
      <point x="192" y="-186"/>
      <point x="131" y="-186" type="curve" smooth="yes"/>
      <point x="105" y="-186"/>
      <point x="82" y="-182"/>
      <point x="56" y="-174" type="curve"/>
      <point x="43" y="-420" type="line"/>
      <point x="87" y="-433"/>
      <point x="124" y="-437"/>
      <point x="169" y="-437" type="curve" smooth="yes"/>
      <point x="378" y="-437"/>
      <point x="512" y="-295"/>
      <point x="512" y="-34" type="curve" smooth="yes"/>
      <point x="512" y="869" type="line"/>
    </contour>
    <contour>
      <point x="1236" y="1456" type="line"/>
      <point x="943" y="1456" type="line"/>
      <point x="943" y="500" type="line"/>
      <point x="512" y="1456" type="line"/>
      <point x="218" y="1456" type="line"/>
      <point x="218" y="0" type="line"/>
      <point x="512" y="0" type="line"/>
      <point x="512" y="955" type="line"/>
      <point x="942" y="0" type="line"/>
      <point x="1236" y="0" type="line"/>
    </contour>
  </outline>
</glyph>
<glyph name="uni023E" format="2">
  <advance width="1113"/>
  <unicode hex="023E"/>
  <outline>
    <contour>
      <point x="1097" y="1576" type="line"/>
      <point x="933" y="1576" type="line"/>
      <point x="181" y="-125" type="line"/>
      <point x="345" y="-125" type="line"/>
    </contour>
    <contour>
      <point x="700" y="1456" type="line"/>
      <point x="406" y="1456" type="line"/>
      <point x="406" y="0" type="line"/>
      <point x="700" y="0" type="line"/>
    </contour>
    <contour>
      <point x="1061" y="1456" type="line"/>
      <point x="52" y="1456" type="line"/>
      <point x="52" y="1211" type="line"/>
      <point x="1061" y="1211" type="line"/>
    </contour>
  </outline>
</glyph>
<glyph name="qhook" format="2">
  <advance width="1142"/>
  <unicode hex="02A0"/>
  <anchor x="463" y="1600" name="top"/>
  <anchor x="462" y="-447" name="bottom"/>
  <anchor x="1103" y="1600" name="top0315"/>
  <anchor x="463" y="1600" name="parent_top"/>
  <outline>
    <contour>
      <point x="910" y="886" type="line"/>
      <point x="910" y="1067" type="line" smooth="yes"/>
      <point x="910" y="1179"/>
      <point x="988" y="1207"/>
      <point x="1045" y="1207" type="curve" smooth="yes"/>
      <point x="1064" y="1207"/>
      <point x="1081" y="1205"/>
      <point x="1103" y="1200" type="curve"/>
      <point x="1101" y="1396" type="line"/>
      <point x="1065" y="1406"/>
      <point x="1022" y="1411"/>
      <point x="966" y="1411" type="curve" smooth="yes"/>
      <point x="823" y="1411"/>
      <point x="627" y="1357"/>
      <point x="627" y="1067" type="curve" smooth="yes"/>
      <point x="627" y="886" type="line"/>
    </contour>
    <contour>
      <point x="626" y="-416" type="line"/>
      <point x="910" y="-416" type="line"/>
      <point x="910" y="1082" type="line"/>
      <point x="662" y="1082" type="line"/>
      <point x="626" y="860" type="line"/>
    </contour>
    <contour>
      <point x="66" y="506" type="line"/>
      <point x="66" y="166"/>
      <point x="186" y="-20"/>
      <point x="417" y="-20" type="curve" smooth="yes"/>
      <point x="632" y="-20"/>
      <point x="722" y="202"/>
      <point x="755" y="485" type="curve"/>
      <point x="755" y="589" type="line"/>
      <point x="724" y="887"/>
      <point x="633" y="1102"/>
      <point x="418" y="1102" type="curve" smooth="yes"/>
      <point x="186" y="1102"/>
      <point x="66" y="932"/>
      <point x="66" y="577" type="curve" smooth="yes"/>
    </contour>
    <contour>
      <point x="349" y="577" type="line"/>
      <point x="349" y="781"/>
      <point x="388" y="867"/>
      <point x="500" y="867" type="curve" smooth="yes"/>
      <point x="612" y="867"/>
      <point x="658" y="777"/>
      <point x="662" y="630" type="curve"/>
      <point x="662" y="444" type="line"/>
      <point x="657" y="311"/>
      <point x="619" y="215"/>
      <point x="499" y="215" type="curve" smooth="yes"/>
      <point x="385" y="215"/>
      <point x="349" y="306"/>
      <point x="349" y="506" type="curve" smooth="yes"/>
    </contour>
  </outline>
</glyph>
<glyph name="finalnun" format="2">
  <advance width="1272"/>
  <unicode hex="02AF"/>
  <anchor x="619" y="1290" name="top"/>
  <anchor x="619" y="-447" name="bottom"/>
  <anchor x="1252" y="1290" name="top0315"/>
  <anchor x="619" y="1290" name="parent_top"/>
  <outline>
    <contour>
      <point x="759" y="-17" type="line"/>
      <point x="1042" y="-17" type="line"/>
      <point x="1042" y="1082" type="line"/>
      <point x="759" y="1082" type="line"/>
    </contour>
    <contour>
      <point x="793" y="504" type="line"/>
      <point x="794" y="340"/>
      <point x="763" y="217"/>
      <point x="633" y="217" type="curve" smooth="yes"/>
      <point x="562" y="217"/>
      <point x="513" y="263"/>
      <point x="513" y="454" type="curve" smooth="yes"/>
      <point x="513" y="682" type="line"/>
      <point x="230" y="682" type="line"/>
      <point x="230" y="456" type="line" smooth="yes"/>
      <point x="230" y="117"/>
      <point x="356" y="-20"/>
      <point x="534" y="-20" type="curve" smooth="yes"/>
      <point x="752" y="-20"/>
      <point x="874" y="202"/>
      <point x="870" y="506" type="curve"/>
    </contour>
    <contour>
      <point x="513" y="558" type="line"/>
      <point x="513" y="758" type="line" smooth="yes"/>
      <point x="513" y="1048"/>
      <point x="316" y="1102"/>
      <point x="174" y="1102" type="curve" smooth="yes"/>
      <point x="117" y="1102"/>
      <point x="75" y="1097"/>
      <point x="39" y="1088" type="curve"/>
      <point x="37" y="892" type="line"/>
      <point x="59" y="896"/>
      <point x="76" y="899"/>
      <point x="95" y="899" type="curve" smooth="yes"/>
      <point x="151" y="899"/>
      <point x="229" y="870"/>
      <point x="229" y="758" type="curve" smooth="yes"/>
      <point x="229" y="558" type="line"/>
    </contour>
    <contour>
      <point x="759" y="108" type="line"/>
      <point x="759" y="-93" type="line" smooth="yes"/>
      <point x="759" y="-382"/>
      <point x="956" y="-436"/>
      <point x="1099" y="-436" type="curve" smooth="yes"/>
      <point x="1155" y="-436"/>
      <point x="1197" y="-431"/>
      <point x="1233" y="-422" type="curve"/>
      <point x="1235" y="-227" type="line"/>
      <point x="1214" y="-231"/>
      <point x="1196" y="-233"/>
      <point x="1177" y="-233" type="curve" smooth="yes"/>
      <point x="1121" y="-233"/>
      <point x="1042" y="-204"/>
      <point x="1042" y="-93" type="curve" smooth="yes"/>
      <point x="1042" y="108" type="line"/>
    </contour>
  </outline>
</glyph>
<glyph name="uni02D4" format="2">
  <advance width="585"/>
  <unicode hex="02D4"/>
  <outline>
    <contour>
      <point x="383" y="568" type="line"/>
      <point x="202" y="568" type="line"/>
      <point x="202" y="154" type="line"/>
      <point x="383" y="154" type="line"/>
    </contour>
    <contour>
      <point x="87" y="334" type="line"/>
      <point x="87" y="154" type="line"/>
      <point x="498" y="154" type="line"/>
      <point x="498" y="334" type="line"/>
    </contour>
  </outline>
</glyph>
<glyph name="uni02EC" format="2">
  <advance width="855"/>
  <unicode hex="02EC"/>
  <outline>
    <contour>
      <point x="311" y="-132" type="line"/>
      <point x="72" y="-132" type="line"/>
      <point x="72" y="-141" type="line"/>
      <point x="340" y="-424" type="line"/>
      <point x="515" y="-424" type="line"/>
      <point x="783" y="-142" type="line"/>
      <point x="783" y="-132" type="line"/>
      <point x="543" y="-132" type="line"/>
      <point x="427" y="-274" type="line"/>
    </contour>
  </outline>
</glyph>
<glyph name="slashshortnosp" format="2">
  <unicode hex="0337"/>
  <outline>
    <contour>
      <point x="-117" y="1216" type="line"/>
      <point x="-268" y="1216" type="line"/>
      <point x="-825" y="-142" type="line"/>
      <point x="-674" y="-142" type="line"/>
    </contour>
  </outline>
</glyph>
<glyph name="uni035B" format="2">
  <unicode hex="035B"/>
  <anchor x="-506" y="1220" name="_top"/>
  <anchor x="-506" y="1741" name="top"/>
  <anchor x="-506" y="1741" name="parent_top"/>
  <outline>
    <contour>
      <point x="-564" y="1661" type="curve"/>
      <point x="-564" y="1661"/>
      <point x="-664" y="1346"/>
      <point x="-664" y="1346" type="curve"/>
      <point x="-664" y="1346"/>
      <point x="-457" y="1346"/>
      <point x="-457" y="1346" type="curve"/>
      <point x="-457" y="1346"/>
      <point x="-506" y="1181"/>
      <point x="-506" y="1181" type="curve"/>
      <point x="-506" y="1181"/>
      <point x="-365" y="1181"/>
      <point x="-365" y="1181" type="curve"/>
      <point x="-365" y="1181"/>
      <point x="-265" y="1496"/>
      <point x="-265" y="1496" type="curve"/>
      <point x="-265" y="1496"/>
      <point x="-472" y="1496"/>
      <point x="-472" y="1496" type="curve"/>
      <point x="-472" y="1496"/>
      <point x="-423" y="1661"/>
      <point x="-423" y="1661" type="curve"/>
      <point x="-423" y="1661"/>
      <point x="-564" y="1661"/>
    </contour>
  </outline>
</glyph>
<glyph name="uni0360" format="2">
  <unicode hex="0360"/>
  <anchor x="20" y="1270" name="_top_dd"/>
  <outline>
    <contour>
      <point x="741" y="1530" type="line"/>
      <point x="725" y="1459"/>
      <point x="663" y="1425"/>
      <point x="574" y="1425" type="curve" smooth="yes"/>
      <point x="337" y="1425"/>
      <point x="-287" y="1505"/>
      <point x="-561" y="1505" type="curve" smooth="yes"/>
      <point x="-717" y="1505"/>
      <point x="-816" y="1422"/>
      <point x="-846" y="1272" type="curve"/>
      <point x="-700" y="1228" type="line"/>
      <point x="-674" y="1304"/>
      <point x="-604" y="1333"/>
      <point x="-531" y="1333" type="curve" smooth="yes"/>
      <point x="-274" y="1333"/>
      <point x="258" y="1252"/>
      <point x="609" y="1252" type="curve" smooth="yes"/>
      <point x="759" y="1252"/>
      <point x="873" y="1331"/>
      <point x="887" y="1483" type="curve"/>
    </contour>
  </outline>
</glyph>
<glyph name="Phi" format="2">
  <advance width="1581"/>
  <unicode hex="03A6"/>
  <outline>
    <contour>
      <point x="648" y="-20" type="line"/>
      <point x="932" y="-20" type="line"/>
      <point x="932" y="189" type="line"/>
      <point x="939" y="189" type="line" smooth="yes"/>
      <point x="1301" y="189"/>
      <point x="1487" y="396"/>
      <point x="1487" y="741" type="curve" smooth="yes"/>
      <point x="1487" y="1084"/>
      <point x="1301" y="1293"/>
      <point x="939" y="1293" type="curve" smooth="yes"/>
      <point x="932" y="1293" type="line"/>
      <point x="932" y="1476" type="line"/>
      <point x="648" y="1476" type="line"/>
      <point x="648" y="1293" type="line"/>
      <point x="641" y="1293" type="line" smooth="yes"/>
      <point x="280" y="1293"/>
      <point x="93" y="1085"/>
      <point x="93" y="742" type="curve" smooth="yes"/>
      <point x="93" y="397"/>
      <point x="280" y="189"/>
      <point x="641" y="189" type="curve" smooth="yes"/>
      <point x="648" y="189" type="line"/>
    </contour>
    <contour>
      <point x="648" y="415" type="line"/>
      <point x="641" y="415" type="line" smooth="yes"/>
      <point x="464" y="415"/>
      <point x="377" y="531"/>
      <point x="377" y="743" type="curve" smooth="yes"/>
      <point x="377" y="952"/>
      <point x="464" y="1068"/>
      <point x="641" y="1068" type="curve" smooth="yes"/>
      <point x="648" y="1068" type="line"/>
    </contour>
    <contour>
      <point x="932" y="415" type="line"/>
      <point x="932" y="1068" type="line"/>
      <point x="939" y="1068" type="line" smooth="yes"/>
      <point x="1116" y="1068"/>
      <point x="1203" y="948"/>
      <point x="1203" y="740" type="curve" smooth="yes"/>
      <point x="1203" y="527"/>
      <point x="1116" y="415"/>
      <point x="939" y="415" type="curve" smooth="yes"/>
    </contour>
  </outline>
</glyph>
<glyph name="Omega" format="2">
  <advance width="1285"/>
  <unicode hex="03A9"/>
  <anchor x="97" y="1456.0" name="GRK_topleft"/>
  <outline>
    <contour>
      <point x="94" y="0" type="line"/>
      <point x="585" y="0" type="line"/>
      <point x="585" y="480" type="line"/>
      <point x="442" y="516"/>
      <point x="388" y="634"/>
      <point x="388" y="827" type="curve"/>
      <point x="388" y="870" type="line"/>
      <point x="388" y="1112"/>
      <point x="461" y="1230"/>
      <point x="642" y="1230" type="curve"/>
      <point x="823" y="1230"/>
      <point x="897" y="1112"/>
      <point x="897" y="870" type="curve"/>
      <point x="897" y="827" type="line"/>
      <point x="897" y="634"/>
      <point x="841" y="516"/>
      <point x="699" y="480" type="curve"/>
      <point x="699" y="0" type="line"/>
      <point x="1191" y="0" type="line"/>
      <point x="1191" y="228" type="line"/>
      <point x="922" y="228" type="line"/>
      <point x="922" y="339" type="line"/>
      <point x="1093" y="415"/>
      <point x="1191" y="571"/>
      <point x="1191" y="851" type="curve"/>
      <point x="1191" y="892" type="line"/>
      <point x="1191" y="1266"/>
      <point x="991" y="1476"/>
      <point x="643" y="1476" type="curve"/>
      <point x="296" y="1476"/>
      <point x="94" y="1267"/>
      <point x="94" y="892" type="curve"/>
      <point x="94" y="851" type="line"/>
      <point x="94" y="571"/>
      <point x="192" y="415"/>
      <point x="362" y="339" type="curve"/>
      <point x="362" y="228" type="line"/>
      <point x="94" y="228" type="line"/>
    </contour>
  </outline>
</glyph>
<glyph name="delta" format="2">
  <advance width="1018"/>
  <unicode hex="03B4"/>
  <outline>
    <contour>
      <point x="504" y="-19" type="curve" smooth="yes"/>
      <point x="778" y="-19"/>
      <point x="946" y="177"/>
      <point x="946" y="483" type="curve" smooth="yes"/>
      <point x="946" y="504" type="line" smooth="yes"/>
      <point x="946" y="769"/>
      <point x="818" y="920"/>
      <point x="629" y="1061" type="curve" smooth="yes"/>
      <point x="503" y="1154"/>
      <point x="483" y="1181"/>
      <point x="483" y="1231" type="curve" smooth="yes"/>
      <point x="483" y="1284"/>
      <point x="516" y="1322"/>
      <point x="591" y="1322" type="curve"/>
      <point x="665" y="1322"/>
      <point x="754" y="1297"/>
      <point x="827" y="1250" type="curve"/>
      <point x="860" y="1478" type="line"/>
      <point x="806" y="1518"/>
      <point x="686" y="1557"/>
      <point x="547" y="1557" type="curve"/>
      <point x="279" y="1557"/>
      <point x="197" y="1391"/>
      <point x="197" y="1256" type="curve"/>
      <point x="197" y="1117"/>
      <point x="259" y="1036"/>
      <point x="479" y="874" type="curve" smooth="yes"/>
      <point x="593" y="790"/>
      <point x="663" y="691"/>
      <point x="663" y="496" type="curve" smooth="yes"/>
      <point x="663" y="467" type="line" smooth="yes"/>
      <point x="663" y="289"/>
      <point x="607" y="219"/>
      <point x="504" y="219" type="curve" smooth="yes"/>
      <point x="404" y="219"/>
      <point x="353" y="299"/>
      <point x="353" y="472" type="curve" smooth="yes"/>
      <point x="353" y="491" type="line" smooth="yes"/>
      <point x="353" y="688"/>
      <point x="420" y="811"/>
      <point x="563" y="877" type="curve"/>
      <point x="454" y="1013" type="line"/>
      <point x="186" y="943"/>
      <point x="71" y="736"/>
      <point x="71" y="484" type="curve" smooth="yes"/>
      <point x="71" y="473" type="line" smooth="yes"/>
      <point x="71" y="184"/>
      <point x="212" y="-19"/>
    </contour>
  </outline>
</glyph>
<glyph name="eta" format="2">
  <advance width="1008"/>
  <unicode hex="03B7"/>
  <anchor x="431" y="1082" name="GRK_top"/>
  <outline>
    <contour>
      <point x="625" y="-416" type="line"/>
      <point x="908" y="-416" type="line"/>
      <point x="908" y="688" type="line" smooth="yes"/>
      <point x="908" y="995"/>
      <point x="791" y="1102"/>
      <point x="622" y="1102" type="curve" smooth="yes"/>
      <point x="519" y="1102"/>
      <point x="433" y="1057"/>
      <point x="370" y="976" type="curve"/>
      <point x="362" y="1082" type="line"/>
      <point x="97" y="1082" type="line"/>
      <point x="97" y="0" type="line"/>
      <point x="380" y="0" type="line"/>
      <point x="380" y="786" type="line"/>
      <point x="407" y="836"/>
      <point x="447" y="866"/>
      <point x="500" y="866" type="curve" smooth="yes"/>
      <point x="583" y="866"/>
      <point x="625" y="827"/>
      <point x="625" y="690" type="curve" smooth="yes"/>
    </contour>
  </outline>
</glyph>
<glyph name="iota" format="2">
  <advance width="640"/>
  <unicode hex="03B9"/>
  <guideline x="0.0" y="659.0" angle="0.0" identifier="Xdy3qajk91"/>
  <guideline x="0.0" y="1005.0" angle="0.0" identifier="yVhGlhHnTS"/>
  <anchor x="286" y="1268" name="top"/>
  <anchor x="620" y="1268" name="top0315"/>
  <anchor x="286" y="1268" name="parent_top"/>
  <outline>
    <contour>
      <point x="130" y="1082" type="line"/>
      <point x="130" y="309" type="line"/>
      <point x="130" y="79"/>
      <point x="238" y="-12"/>
      <point x="406" y="-12" type="curve" smooth="yes"/>
      <point x="472" y="-12"/>
      <point x="520" y="-1"/>
      <point x="563" y="16" type="curve"/>
      <point x="565" y="236" type="line"/>
      <point x="550" y="232"/>
      <point x="526" y="229"/>
      <point x="498" y="229" type="curve" smooth="yes"/>
      <point x="437" y="229"/>
      <point x="413" y="250"/>
      <point x="413" y="341" type="curve"/>
      <point x="414" y="1082" type="line"/>
    </contour>
  </outline>
</glyph>
<glyph name="finalsigma" format="2">
  <advance width="941"/>
  <unicode hex="03C2"/>
  <outline>
    <contour>
      <point x="544" y="-343" type="curve"/>
      <point x="761" y="-343" type="line"/>
      <point x="800" y="-230"/>
      <point x="824" y="-102"/>
      <point x="824" y="-30" type="curve" smooth="yes"/>
      <point x="824" y="98"/>
      <point x="772" y="161"/>
      <point x="596" y="227" type="curve" smooth="yes"/>
      <point x="529" y="252" type="line" smooth="yes"/>
      <point x="405" y="298"/>
      <point x="353" y="355"/>
      <point x="353" y="510" type="curve" smooth="yes"/>
      <point x="353" y="559" type="line" smooth="yes"/>
      <point x="353" y="796"/>
      <point x="382" y="867"/>
      <point x="494" y="867" type="curve" smooth="yes"/>
      <point x="580" y="867"/>
      <point x="619" y="793"/>
      <point x="619" y="695" type="curve" smooth="yes"/>
      <point x="619" y="678" type="line"/>
      <point x="884" y="678" type="line"/>
      <point x="884" y="686" type="line" smooth="yes"/>
      <point x="884" y="919"/>
      <point x="760" y="1102"/>
      <point x="501" y="1102" type="curve" smooth="yes"/>
      <point x="225" y="1102"/>
      <point x="70" y="937"/>
      <point x="70" y="562" type="curve" smooth="yes"/>
      <point x="70" y="491" type="line" smooth="yes"/>
      <point x="70" y="175"/>
      <point x="180" y="81"/>
      <point x="383" y="11" type="curve" smooth="yes"/>
      <point x="438" y="-8" type="line" smooth="yes"/>
      <point x="542" y="-44"/>
      <point x="576" y="-73"/>
      <point x="576" y="-140" type="curve"/>
      <point x="576" y="-194"/>
      <point x="565" y="-266"/>
    </contour>
  </outline>
</glyph>
<glyph name="phi" format="2">
  <advance width="1429"/>
  <unicode hex="03C6"/>
  <outline>
    <contour>
      <point x="570" y="-416" type="line"/>
      <point x="858" y="-416" type="line"/>
      <point x="858" y="-20" type="line"/>
      <point x="1194" y="-4"/>
      <point x="1357" y="168"/>
      <point x="1357" y="521" type="curve" smooth="yes"/>
      <point x="1357" y="548" type="line" smooth="yes"/>
      <point x="1357" y="904"/>
      <point x="1194" y="1086"/>
      <point x="858" y="1102" type="curve"/>
      <point x="858" y="1536" type="line"/>
      <point x="570" y="1536" type="line"/>
      <point x="570" y="1102" type="line"/>
      <point x="243" y="1086"/>
      <point x="71" y="904"/>
      <point x="71" y="548" type="curve" smooth="yes"/>
      <point x="71" y="521" type="line" smooth="yes"/>
      <point x="71" y="168"/>
      <point x="243" y="-4"/>
      <point x="570" y="-20" type="curve"/>
    </contour>
    <contour>
      <point x="570" y="205" type="line"/>
      <point x="445" y="212"/>
      <point x="354" y="289"/>
      <point x="354" y="489" type="curve" smooth="yes"/>
      <point x="354" y="580" type="line" smooth="yes"/>
      <point x="354" y="783"/>
      <point x="434" y="870"/>
      <point x="570" y="877" type="curve"/>
    </contour>
    <contour>
      <point x="858" y="205" type="curve"/>
      <point x="858" y="877" type="line"/>
      <point x="989" y="870"/>
      <point x="1074" y="783"/>
      <point x="1074" y="580" type="curve" smooth="yes"/>
      <point x="1074" y="489" type="line" smooth="yes"/>
      <point x="1074" y="289"/>
      <point x="1001" y="212"/>
    </contour>
  </outline>
</glyph>
<glyph name="Kaisymbol" format="2">
  <advance width="1133"/>
  <unicode hex="03CF"/>
  <outline>
    <contour>
      <point x="460" y="-660" type="line"/>
      <point x="1142" y="0" type="line"/>
      <point x="718" y="816" type="line"/>
      <point x="1135" y="1456" type="line"/>
      <point x="776" y="1456" type="line"/>
      <point x="505" y="979" type="line"/>
      <point x="412" y="823" type="line"/>
      <point x="412" y="1456" type="line"/>
      <point x="117" y="1456" type="line"/>
      <point x="117" y="0" type="line"/>
      <point x="412" y="0" type="line"/>
      <point x="412" y="418" type="line"/>
      <point x="528" y="563" type="line"/>
      <point x="782" y="26" type="line"/>
      <point x="282" y="-461" type="line"/>
    </contour>
  </outline>
</glyph>
<glyph name="kaisymbol" format="2">
  <advance width="980"/>
  <unicode hex="03D7"/>
  <outline>
    <contour>
      <point x="418" y="-633" type="line"/>
      <point x="984" y="0" type="line"/>
      <point x="680" y="564" type="line"/>
      <point x="953" y="1082" type="line"/>
      <point x="647" y="1082" type="line"/>
      <point x="446" y="664" type="line"/>
      <point x="386" y="664" type="line"/>
      <point x="386" y="1082" type="line"/>
      <point x="103" y="1082" type="line"/>
      <point x="103" y="0" type="line"/>
      <point x="386" y="0" type="line"/>
      <point x="386" y="439" type="line"/>
      <point x="441" y="439" type="line"/>
      <point x="658" y="16" type="line"/>
      <point x="244" y="-460" type="line"/>
    </contour>
  </outline>
</glyph>
<glyph name="uni0437" format="2">
  <advance width="927"/>
  <unicode hex="0437"/>
  <guideline x="0.0" y="1326.0" angle="0.0" identifier="6NQZAv3NRg"/>
  <guideline x="0.0" y="444.0" angle="0.0" identifier="27Y4TYuOl9"/>
  <anchor x="473" y="1289" name="top"/>
  <anchor x="473" y="-9" name="bottom"/>
  <anchor x="907" y="1289" name="top0315"/>
  <anchor x="473" y="1289" name="parent_top"/>
  <outline>
    <contour>
      <point x="532" y="516" type="line"/>
      <point x="722" y="516"/>
      <point x="845" y="638"/>
      <point x="845" y="786" type="curve"/>
      <point x="845" y="991"/>
      <point x="693" y="1101"/>
      <point x="458" y="1101" type="curve" smooth="yes"/>
      <point x="251" y="1101"/>
      <point x="85" y="978"/>
      <point x="85" y="771" type="curve"/>
      <point x="368" y="771" type="line"/>
      <point x="368" y="842"/>
      <point x="408" y="882"/>
      <point x="473" y="882" type="curve" smooth="yes"/>
      <point x="546" y="882"/>
      <point x="563" y="821"/>
      <point x="563" y="763" type="curve"/>
      <point x="563" y="694"/>
      <point x="538" y="648"/>
      <point x="472" y="648" type="curve" smooth="yes"/>
      <point x="339" y="648" type="line"/>
      <point x="339" y="516" type="line"/>
    </contour>
    <contour>
      <point x="339" y="588" type="line"/>
      <point x="339" y="460" type="line"/>
      <point x="472" y="460" type="line" smooth="yes"/>
      <point x="543" y="460"/>
      <point x="579" y="421"/>
      <point x="579" y="329" type="curve" smooth="yes"/>
      <point x="579" y="264"/>
      <point x="553" y="199"/>
      <point x="474" y="199" type="curve" smooth="yes"/>
      <point x="389" y="199"/>
      <point x="354" y="256"/>
      <point x="354" y="321" type="curve"/>
      <point x="71" y="321" type="line"/>
      <point x="71" y="84"/>
      <point x="266" y="-20"/>
      <point x="458" y="-20" type="curve" smooth="yes"/>
      <point x="694" y="-20"/>
      <point x="862" y="101"/>
      <point x="862" y="306" type="curve" smooth="yes"/>
      <point x="862" y="487"/>
      <point x="743" y="588"/>
      <point x="532" y="588" type="curve" smooth="yes"/>
    </contour>
  </outline>
</glyph>
<glyph name="uni0466" format="2">
  <advance width="1201"/>
  <unicode hex="0466"/>
  <outline>
    <contour>
      <point x="696" y="1330" type="line"/>
      <point x="615" y="1456" type="line"/>
      <point x="455" y="1456" type="line"/>
      <point x="29" y="0" type="line"/>
      <point x="338" y="0" type="line"/>
    </contour>
    <contour>
      <point x="875" y="0" type="line"/>
      <point x="1184" y="0" type="line"/>
      <point x="760" y="1456" type="line"/>
      <point x="600" y="1456" type="line"/>
      <point x="514" y="1340" type="line"/>
    </contour>
    <contour>
      <point x="920" y="629" type="line"/>
      <point x="253" y="629" type="line"/>
      <point x="253" y="419" type="line"/>
      <point x="920" y="419" type="line"/>
    </contour>
    <contour>
      <point x="723" y="529" type="line"/>
      <point x="481" y="529" type="line"/>
      <point x="481" y="0" type="line"/>
      <point x="723" y="0" type="line"/>
    </contour>
  </outline>
</glyph>
<glyph name="uni0473" format="2">
  <advance width="1012"/>
  <unicode hex="0473"/>
  <anchor x="498" y="1290" name="top"/>
  <anchor x="992" y="1290" name="top0315"/>
  <anchor x="498" y="1290" name="parent_top"/>
  <outline>
    <contour>
      <point x="764" y="629" type="line"/>
      <point x="235" y="629" type="line"/>
      <point x="235" y="446" type="line"/>
      <point x="764" y="446" type="line"/>
    </contour>
    <contour>
      <point x="70" y="530" type="line"/>
      <point x="70" y="215"/>
      <point x="225" y="-20"/>
      <point x="508" y="-20" type="curve" smooth="yes"/>
      <point x="791" y="-20"/>
      <point x="945" y="215"/>
      <point x="945" y="530" type="curve"/>
      <point x="945" y="551" type="line"/>
      <point x="945" y="866"/>
      <point x="791" y="1102"/>
      <point x="506" y="1102" type="curve" smooth="yes"/>
      <point x="225" y="1102"/>
      <point x="70" y="866"/>
      <point x="70" y="551" type="curve"/>
    </contour>
    <contour>
      <point x="353" y="551" type="line"/>
      <point x="353" y="722"/>
      <point x="388" y="867"/>
      <point x="506" y="867" type="curve" smooth="yes"/>
      <point x="627" y="867"/>
      <point x="662" y="722"/>
      <point x="662" y="551" type="curve"/>
      <point x="662" y="530" type="line"/>
      <point x="662" y="355"/>
      <point x="626" y="215"/>
      <point x="508" y="215" type="curve" smooth="yes"/>
      <point x="388" y="215"/>
      <point x="353" y="355"/>
      <point x="353" y="530" type="curve"/>
    </contour>
  </outline>
</glyph>
<glyph name="uni1D2A" format="2">
  <advance width="1292"/>
  <unicode hex="1D2A"/>
  <anchor x="654" y="1290" name="top"/>
  <anchor x="654" y="0" name="bottom"/>
  <anchor x="1272" y="1290" name="top0315"/>
  <anchor x="654" y="1290" name="parent_top"/>
  <outline>
    <contour>
      <point x="792" y="1082" type="line"/>
      <point x="509" y="1082" type="line"/>
      <point x="509" y="0" type="line"/>
      <point x="792" y="0" type="line"/>
    </contour>
    <contour>
      <point x="958" y="1082" type="line"/>
      <point x="958" y="866" type="line" smooth="yes"/>
      <point x="958" y="601"/>
      <point x="861" y="486"/>
      <point x="646" y="486" type="curve" smooth="yes"/>
      <point x="431" y="486"/>
      <point x="334" y="601"/>
      <point x="334" y="866" type="curve" smooth="yes"/>
      <point x="334" y="1082" type="line"/>
      <point x="51" y="1082" type="line"/>
      <point x="51" y="867" type="line" smooth="yes"/>
      <point x="51" y="464"/>
      <point x="232" y="251"/>
      <point x="646" y="251" type="curve" smooth="yes"/>
      <point x="1060" y="251"/>
      <point x="1241" y="464"/>
      <point x="1241" y="867" type="curve" smooth="yes"/>
      <point x="1241" y="1082" type="line"/>
    </contour>
  </outline>
</glyph>
<glyph name="uni1D4A" format="2">
  <advance width="770"/>
  <unicode hex="1D4A"/>
  <outline>
    <contour>
      <point x="355" y="1467" type="curve" smooth="yes"/>
      <point x="220" y="1467"/>
      <point x="125" y="1396"/>
      <point x="83" y="1323" type="curve"/>
      <point x="189" y="1196" type="line"/>
      <point x="225" y="1254"/>
      <point x="280" y="1285"/>
      <point x="342" y="1285" type="curve" smooth="yes"/>
      <point x="432" y="1285"/>
      <point x="498" y="1205"/>
      <point x="498" y="1079" type="curve" smooth="yes"/>
      <point x="498" y="1050" type="line" smooth="yes"/>
      <point x="498" y="911"/>
      <point x="462" y="819"/>
      <point x="378" y="819" type="curve" smooth="yes"/>
      <point x="311" y="819"/>
      <point x="272" y="873"/>
      <point x="272" y="958" type="curve" smooth="yes"/>
      <point x="272" y="975" type="line"/>
      <point x="609" y="975" type="line"/>
      <point x="609" y="1130" type="line"/>
      <point x="67" y="1130" type="line"/>
      <point x="67" y="1030" type="line" smooth="yes"/>
      <point x="67" y="793"/>
      <point x="175" y="637"/>
      <point x="377" y="637" type="curve" smooth="yes"/>
      <point x="578" y="637"/>
      <point x="702" y="809"/>
      <point x="702" y="1050" type="curve" smooth="yes"/>
      <point x="702" y="1079" type="line" smooth="yes"/>
      <point x="702" y="1293"/>
      <point x="574" y="1467"/>
    </contour>
  </outline>
</glyph>
<glyph name="uni1D7F" format="2">
  <advance width="1138"/>
  <unicode hex="1D7F"/>
  <anchor x="567" y="1290" name="top"/>
  <anchor x="567" y="0" name="bottom"/>
  <anchor x="1118" y="1290" name="top0315"/>
  <anchor x="567" y="1290" name="parent_top"/>
  <outline>
    <contour>
      <point x="1097" y="661" type="line"/>
      <point x="41" y="661" type="line"/>
      <point x="41" y="478" type="line"/>
      <point x="1097" y="478" type="line"/>
    </contour>
    <contour>
      <point x="569" y="214" type="curve" smooth="yes"/>
      <point x="420" y="214"/>
      <point x="380" y="338"/>
      <point x="380" y="442" type="curve" smooth="yes"/>
      <point x="380" y="602"/>
      <point x="453" y="727"/>
      <point x="453" y="872" type="curve" smooth="yes"/>
      <point x="453" y="999"/>
      <point x="383" y="1103"/>
      <point x="100" y="1103" type="curve"/>
      <point x="100" y="880" type="line"/>
      <point x="131" y="880"/>
      <point x="164" y="860"/>
      <point x="164" y="807" type="curve" smooth="yes"/>
      <point x="164" y="705"/>
      <point x="97" y="598"/>
      <point x="97" y="366" type="curve" smooth="yes"/>
      <point x="97" y="202"/>
      <point x="188" y="-21"/>
      <point x="569" y="-21" type="curve" smooth="yes"/>
      <point x="950" y="-21"/>
      <point x="1041" y="202"/>
      <point x="1041" y="366" type="curve" smooth="yes"/>
      <point x="1041" y="598"/>
      <point x="974" y="705"/>
      <point x="974" y="807" type="curve" smooth="yes"/>
      <point x="974" y="860"/>
      <point x="1007" y="880"/>
      <point x="1038" y="880" type="curve"/>
      <point x="1038" y="1103" type="line"/>
      <point x="757" y="1103"/>
      <point x="685" y="999"/>
      <point x="685" y="872" type="curve" smooth="yes"/>
      <point x="685" y="727"/>
      <point x="758" y="602"/>
      <point x="758" y="442" type="curve" smooth="yes"/>
      <point x="758" y="338"/>
      <point x="718" y="214"/>
    </contour>
  </outline>
</glyph>
<glyph name="uni1D83" format="2">
  <advance width="1364"/>
  <unicode hex="1D83"/>
  <anchor x="485" y="1290" name="top"/>
  <anchor x="485" y="-447" name="bottom"/>
  <anchor x="1344" y="1290" name="top0315"/>
  <anchor x="485" y="1290" name="parent_top"/>
  <outline>
    <contour>
      <point x="835" y="235" type="line"/>
      <point x="835" y="0" type="line"/>
      <point x="1121" y="0" type="line"/>
      <point x="1121" y="-78" type="line" smooth="yes"/>
      <point x="1121" y="-189"/>
      <point x="1042" y="-218"/>
      <point x="986" y="-218" type="curve" smooth="yes"/>
      <point x="967" y="-218"/>
      <point x="950" y="-215"/>
      <point x="928" y="-211" type="curve"/>
      <point x="930" y="-406" type="line"/>
      <point x="966" y="-418"/>
      <point x="1000" y="-421"/>
      <point x="1036" y="-421" type="curve" smooth="yes"/>
      <point x="1207" y="-421"/>
      <point x="1328" y="-300"/>
      <point x="1328" y="-78" type="curve" smooth="yes"/>
      <point x="1328" y="235" type="line"/>
    </contour>
    <contour>
      <point x="672" y="1082" type="line"/>
      <point x="644" y="831" type="line"/>
      <point x="644" y="37" type="line" smooth="yes"/>
      <point x="644" y="-115"/>
      <point x="574" y="-199"/>
      <point x="458" y="-199" type="curve" smooth="yes"/>
      <point x="374" y="-199"/>
      <point x="300" y="-154"/>
      <point x="247" y="-80" type="curve"/>
      <point x="124" y="-258" type="line"/>
      <point x="204" y="-373"/>
      <point x="364" y="-426"/>
      <point x="471" y="-426" type="curve" smooth="yes"/>
      <point x="740" y="-426"/>
      <point x="927" y="-260"/>
      <point x="927" y="38" type="curve" smooth="yes"/>
      <point x="927" y="1082" type="line"/>
    </contour>
    <contour>
      <point x="68" y="528" type="line"/>
      <point x="68" y="213"/>
      <point x="212" y="-20"/>
      <point x="440" y="-20" type="curve" smooth="yes"/>
      <point x="668" y="-20"/>
      <point x="758" y="216"/>
      <point x="792" y="518" type="curve"/>
      <point x="792" y="552" type="line"/>
      <point x="760" y="869"/>
      <point x="693" y="1102"/>
      <point x="442" y="1102" type="curve" smooth="yes"/>
      <point x="212" y="1102"/>
      <point x="68" y="878"/>
      <point x="68" y="549" type="curve" smooth="yes"/>
    </contour>
    <contour>
      <point x="351" y="549" type="line"/>
      <point x="351" y="728"/>
      <point x="404" y="866"/>
      <point x="516" y="866" type="curve" smooth="yes"/>
      <point x="627" y="866"/>
      <point x="681" y="762"/>
      <point x="684" y="593" type="curve"/>
      <point x="684" y="476" type="line"/>
      <point x="680" y="324"/>
      <point x="635" y="217"/>
      <point x="515" y="217" type="curve" smooth="yes"/>
      <point x="401" y="217"/>
      <point x="351" y="355"/>
      <point x="351" y="528" type="curve" smooth="yes"/>
    </contour>
  </outline>
</glyph>
<glyph name="uni1D85" format="2">
  <advance width="582"/>
  <unicode hex="1D85"/>
  <anchor x="254" y="1700" name="top"/>
  <anchor x="254" y="-447" name="bottom"/>
  <anchor x="562" y="1700" name="top0315"/>
  <anchor x="254" y="1700" name="parent_top"/>
  <outline>
    <contour>
      <point x="337" y="235" type="line"/>
      <point x="337" y="-78" type="line" smooth="yes"/>
      <point x="337" y="-189"/>
      <point x="258" y="-218"/>
      <point x="202" y="-218" type="curve" smooth="yes"/>
      <point x="183" y="-218"/>
      <point x="166" y="-215"/>
      <point x="144" y="-211" type="curve"/>
      <point x="146" y="-406" type="line"/>
      <point x="182" y="-418"/>
      <point x="216" y="-421"/>
      <point x="252" y="-421" type="curve" smooth="yes"/>
      <point x="423" y="-421"/>
      <point x="544" y="-300"/>
      <point x="544" y="-78" type="curve" smooth="yes"/>
      <point x="544" y="235" type="line"/>
    </contour>
    <contour>
      <point x="391" y="1536" type="line"/>
      <point x="107" y="1536" type="line"/>
      <point x="107" y="0" type="line"/>
      <point x="391" y="0" type="line"/>
    </contour>
  </outline>
</glyph>
<glyph name="uni1DB8" format="2">
  <advance width="859"/>
  <unicode hex="1DB8"/>
  <outline>
    <contour>
      <point x="541" y="1455" type="line"/>
      <point x="541" y="996" type="line" smooth="yes"/>
      <point x="541" y="874"/>
      <point x="504" y="821"/>
      <point x="413" y="821" type="curve" smooth="yes"/>
      <point x="326" y="821"/>
      <point x="286" y="874"/>
      <point x="286" y="996" type="curve" smooth="yes"/>
      <point x="286" y="1455" type="line"/>
      <point x="82" y="1455" type="line"/>
      <point x="82" y="996" type="line" smooth="yes"/>
      <point x="82" y="749"/>
      <point x="223" y="638"/>
      <point x="413" y="638" type="curve" smooth="yes"/>
      <point x="607" y="638"/>
      <point x="745" y="749"/>
      <point x="745" y="996" type="curve" smooth="yes"/>
      <point x="745" y="1455" type="line"/>
    </contour>
  </outline>
</glyph>
<glyph name="uni1DE3" format="2">
  <unicode hex="1DE3"/>
  <anchor x="-453" y="1170" name="_top"/>
  <outline>
    <contour>
      <point x="-558" y="1591" type="line"/>
      <point x="-523" y="1614"/>
      <point x="-502" y="1629"/>
      <point x="-474" y="1629" type="curve" smooth="yes"/>
      <point x="-445" y="1629"/>
      <point x="-432" y="1607"/>
      <point x="-432" y="1571" type="curve" smooth="yes"/>
      <point x="-432" y="1522"/>
      <point x="-465" y="1489"/>
      <point x="-538" y="1456" type="curve"/>
      <point x="-480" y="1368" type="line"/>
      <point x="-365" y="1412"/>
      <point x="-284" y="1461"/>
      <point x="-284" y="1573" type="curve" smooth="yes"/>
      <point x="-284" y="1686"/>
      <point x="-362" y="1755"/>
      <point x="-455" y="1755" type="curve" smooth="yes"/>
      <point x="-536" y="1755"/>
      <point x="-572" y="1727"/>
      <point x="-626" y="1689" type="curve"/>
    </contour>
    <contour>
      <point x="-422" y="1201" type="line"/>
      <point x="-272" y="1201" type="line"/>
      <point x="-272" y="1210" type="line"/>
      <point x="-397" y="1465" type="line"/>
      <point x="-538" y="1456" type="line"/>
    </contour>
  </outline>
</glyph>
<glyph name="underscoredbl" format="2">
  <advance width="805"/>
  <unicode hex="2017"/>
  <outline>
    <contour>
      <point x="784" y="-264" type="line"/>
      <point x="9" y="-264" type="line"/>
      <point x="9" y="-417" type="line"/>
      <point x="784" y="-417" type="line"/>
    </contour>
    <contour>
      <point x="784" y="0" type="line"/>
      <point x="9" y="0" type="line"/>
      <point x="9" y="-153" type="line"/>
      <point x="784" y="-153" type="line"/>
    </contour>
  </outline>
</glyph>
<glyph name="parenleftinferior" format="2">
  <advance width="490"/>
  <unicode hex="208D"/>
  <outline>
    <contour>
      <point x="81" y="13" type="line"/>
      <point x="81" y="-288"/>
      <point x="219" y="-478"/>
      <point x="324" y="-531" type="curve"/>
      <point x="403" y="-401" type="line"/>
      <point x="354" y="-333"/>
      <point x="293" y="-227"/>
      <point x="293" y="12" type="curve" smooth="yes"/>
      <point x="293" y="30" type="line" smooth="yes"/>
      <point x="293" y="269"/>
      <point x="352" y="374"/>
      <point x="403" y="449" type="curve"/>
      <point x="324" y="581" type="line"/>
      <point x="219" y="527"/>
      <point x="81" y="333"/>
      <point x="81" y="29" type="curve" smooth="yes"/>
    </contour>
  </outline>
</glyph>
<glyph name="uni20B6" format="2">
  <advance width="1121"/>
  <unicode hex="20B6"/>
  <outline>
    <contour>
      <point x="1032" y="1082" type="line"/>
      <point x="51" y="1082" type="line"/>
      <point x="51" y="869" type="line"/>
      <point x="1032" y="869" type="line"/>
    </contour>
    <contour>
      <point x="605" y="1349" type="line"/>
      <point x="605" y="320" type="line" smooth="yes"/>
      <point x="605" y="87"/>
      <point x="691" y="-20"/>
      <point x="881" y="-20" type="curve" smooth="yes"/>
      <point x="946" y="-20"/>
      <point x="995" y="-10"/>
      <point x="1038" y="7" type="curve"/>
      <point x="1039" y="228" type="line"/>
      <point x="1025" y="224"/>
      <point x="1001" y="220"/>
      <point x="972" y="220" type="curve" smooth="yes"/>
      <point x="900" y="220"/>
      <point x="887" y="255"/>
      <point x="887" y="340" type="curve" smooth="yes"/>
      <point x="887" y="1349" type="line"/>
    </contour>
    <contour>
      <point x="492" y="1536" type="line"/>
      <point x="209" y="1536" type="line"/>
      <point x="209" y="0" type="line"/>
      <point x="492" y="0" type="line"/>
    </contour>
  </outline>
</glyph>
<glyph name="uni2C71" format="2">
  <advance width="1070"/>
  <unicode hex="2C71"/>
  <outline>
    <contour>
      <point x="467" y="418" type="line"/>
      <point x="406" y="0" type="line"/>
      <point x="595" y="0" type="line"/>
      <point x="786" y="735" type="line" smooth="yes"/>
      <point x="808" y="818"/>
      <point x="834" y="848"/>
      <point x="867" y="848" type="curve" smooth="yes"/>
      <point x="888" y="848"/>
      <point x="917" y="833"/>
      <point x="943" y="811" type="curve"/>
      <point x="1045" y="999" type="line"/>
      <point x="983" y="1061"/>
      <point x="907" y="1102"/>
      <point x="810" y="1102" type="curve" smooth="yes"/>
      <point x="656" y="1102"/>
      <point x="572" y="988"/>
      <point x="532" y="812" type="curve" smooth="yes"/>
    </contour>
    <contour>
      <point x="322" y="1082" type="line"/>
      <point x="26" y="1082" type="line"/>
      <point x="323" y="0" type="line"/>
      <point x="512" y="0" type="line"/>
      <point x="452" y="418" type="line"/>
    </contour>
  </outline>
</glyph>
<glyph name="uni2C76" format="2">
  <advance width="775"/>
  <unicode hex="2C76"/>
  <outline>
    <contour>
      <point x="736" y="649" type="line"/>
      <point x="287" y="649" type="line"/>
      <point x="287" y="415" type="line"/>
      <point x="736" y="415" type="line"/>
    </contour>
    <contour>
      <point x="380" y="1082" type="line"/>
      <point x="97" y="1082" type="line"/>
      <point x="97" y="0" type="line"/>
      <point x="380" y="0" type="line"/>
    </contour>
  </outline>
</glyph>
<glyph name="uni2DE9" format="2">
  <unicode hex="2DE9"/>
  <anchor x="-469" y="1170" name="_top"/>
  <outline>
    <contour>
      <point x="-361" y="1537" type="line"/>
      <point x="-578" y="1537" type="line"/>
      <point x="-578" y="1412" type="line"/>
      <point x="-361" y="1412" type="line"/>
    </contour>
    <contour>
      <point x="-534" y="1753" type="line"/>
      <point x="-683" y="1753" type="line"/>
      <point x="-683" y="1201" type="line"/>
      <point x="-534" y="1201" type="line"/>
    </contour>
    <contour>
      <point x="-255" y="1753" type="line"/>
      <point x="-405" y="1753" type="line"/>
      <point x="-405" y="1201" type="line"/>
      <point x="-255" y="1201" type="line"/>
    </contour>
  </outline>
</glyph>
<glyph name="uni2DEC" format="2">
  <unicode hex="2DEC"/>
  <anchor x="-468" y="944" name="_top"/>
  <outline>
    <contour>
      <point x="-576" y="1629" type="line"/>
      <point x="-597" y="1750" type="line"/>
      <point x="-726" y="1750" type="line"/>
      <point x="-726" y="959" type="line"/>
      <point x="-576" y="959" type="line"/>
    </contour>
    <contour>
      <point x="-472" y="1761" type="curve" smooth="yes"/>
      <point x="-584" y="1761"/>
      <point x="-635" y="1646"/>
      <point x="-652" y="1492" type="curve"/>
      <point x="-652" y="1464" type="line"/>
      <point x="-636" y="1302"/>
      <point x="-585" y="1192"/>
      <point x="-473" y="1192" type="curve" smooth="yes"/>
      <point x="-354" y="1192"/>
      <point x="-288" y="1303"/>
      <point x="-288" y="1471" type="curve" smooth="yes"/>
      <point x="-288" y="1482" type="line" smooth="yes"/>
      <point x="-288" y="1642"/>
      <point x="-356" y="1761"/>
    </contour>
    <contour>
      <point x="-510" y="1634" type="curve" smooth="yes"/>
      <point x="-457" y="1634"/>
      <point x="-438" y="1570"/>
      <point x="-438" y="1482" type="curve" smooth="yes"/>
      <point x="-438" y="1471" type="line" smooth="yes"/>
      <point x="-438" y="1380"/>
      <point x="-458" y="1315"/>
      <point x="-511" y="1315" type="curve" smooth="yes"/>
      <point x="-560" y="1315"/>
      <point x="-589" y="1362"/>
      <point x="-590" y="1448" type="curve"/>
      <point x="-590" y="1508" type="line"/>
      <point x="-588" y="1586"/>
      <point x="-562" y="1634"/>
    </contour>
  </outline>
</glyph>
<glyph name="uni2E05" format="2">
  <advance width="814"/>
  <unicode hex="2E05"/>
  <outline>
    <contour>
      <point x="432" y="1467" type="line"/>
      <point x="725" y="1121" type="line"/>
      <point x="587" y="975" type="line"/>
      <point x="294" y="1322" type="line"/>
    </contour>
    <contour>
      <point x="521" y="1121" type="line"/>
      <point x="725" y="1121" type="line"/>
      <point x="725" y="651" type="line"/>
      <point x="521" y="651" type="line"/>
    </contour>
    <contour>
      <point x="87" y="952" type="curve" smooth="yes"/>
      <point x="87" y="873"/>
      <point x="147" y="813"/>
      <point x="241" y="813" type="curve" smooth="yes"/>
      <point x="336" y="813"/>
      <point x="396" y="873"/>
      <point x="396" y="952" type="curve" smooth="yes"/>
      <point x="396" y="1031"/>
      <point x="336" y="1091"/>
      <point x="241" y="1091" type="curve" smooth="yes"/>
      <point x="147" y="1091"/>
      <point x="87" y="1031"/>
    </contour>
  </outline>
</glyph>
<glyph name="uniA652" format="2">
  <advance width="1524"/>
  <unicode hex="A652"/>
  <outline>
    <contour>
      <point x="1047" y="1309" type="line"/>
      <point x="224" y="1309" type="line"/>
      <point x="224" y="1068" type="line"/>
      <point x="1047" y="1068" type="line"/>
    </contour>
    <contour>
      <point x="412" y="1456" type="line"/>
      <point x="118" y="1456" type="line"/>
      <point x="118" y="0" type="line"/>
      <point x="412" y="0" type="line"/>
    </contour>
    <contour>
      <point x="700" y="934" type="line"/>
      <point x="700" y="689" type="line"/>
      <point x="975" y="689" type="line"/>
      <point x="1095" y="689"/>
      <point x="1159" y="596"/>
      <point x="1159" y="474" type="curve"/>
      <point x="1159" y="348"/>
      <point x="1095" y="244"/>
      <point x="975" y="244" type="curve"/>
      <point x="797" y="244" type="line"/>
      <point x="797" y="1456" type="line"/>
      <point x="502" y="1456" type="line"/>
      <point x="502" y="0" type="line"/>
      <point x="975" y="0" type="line"/>
      <point x="1267" y="0"/>
      <point x="1453" y="193"/>
      <point x="1453" y="472" type="curve"/>
      <point x="1453" y="750"/>
      <point x="1267" y="934"/>
      <point x="975" y="934" type="curve"/>
    </contour>
  </outline>
</glyph>
<glyph name="uniA65A" format="2">
  <advance width="1571"/>
  <unicode hex="A65A"/>
  <outline>
    <contour>
      <point x="1288" y="438" type="line"/>
      <point x="303" y="438" type="line"/>
      <point x="303" y="200" type="line"/>
      <point x="1288" y="200" type="line"/>
    </contour>
    <contour>
      <point x="396" y="0" type="line"/>
      <point x="396" y="336" type="line" smooth="yes"/>
      <point x="396" y="505"/>
      <point x="449" y="553"/>
      <point x="556" y="553" type="curve" smooth="yes"/>
      <point x="1016" y="553" type="line" smooth="yes"/>
      <point x="1123" y="553"/>
      <point x="1176" y="505"/>
      <point x="1176" y="336" type="curve" smooth="yes"/>
      <point x="1176" y="0" type="line"/>
      <point x="1470" y="0" type="line"/>
      <point x="1470" y="336" type="line" smooth="yes"/>
      <point x="1470" y="676"/>
      <point x="1283" y="800"/>
      <point x="1056" y="800" type="curve" smooth="yes"/>
      <point x="538" y="800" type="line" smooth="yes"/>
      <point x="276" y="800"/>
      <point x="102" y="676"/>
      <point x="102" y="336" type="curve" smooth="yes"/>
      <point x="102" y="0" type="line"/>
    </contour>
    <contour>
      <point x="1104" y="1456" type="line"/>
      <point x="490" y="1456" type="line"/>
      <point x="490" y="1208" type="line"/>
      <point x="1104" y="1208" type="line"/>
    </contour>
    <contour>
      <point x="715" y="707" type="line"/>
      <point x="762" y="571" type="line"/>
      <point x="932" y="570" type="line"/>
      <point x="1353" y="1456" type="line"/>
      <point x="1032" y="1456" type="line"/>
    </contour>
    <contour>
      <point x="554" y="1456" type="line"/>
      <point x="232" y="1456" type="line"/>
      <point x="653" y="571" type="line"/>
      <point x="824" y="571" type="line"/>
      <point x="874" y="699" type="line"/>
    </contour>
    <contour>
      <point x="947" y="312" type="line"/>
      <point x="653" y="312" type="line"/>
      <point x="653" y="0" type="line"/>
      <point x="947" y="0" type="line"/>
    </contour>
  </outline>
</glyph>
<glyph name="uniA66B" format="2">
  <advance width="1378"/>
  <unicode hex="A66B"/>
  <outline>
    <contour>
      <point x="72" y="530" type="line"/>
      <point x="72" y="200"/>
      <point x="316" y="-20"/>
      <point x="690" y="-20" type="curve" smooth="yes"/>
      <point x="1063" y="-20"/>
      <point x="1306" y="200"/>
      <point x="1306" y="530" type="curve" smooth="yes"/>
      <point x="1306" y="551" type="line" smooth="yes"/>
      <point x="1306" y="881"/>
      <point x="1063" y="1102"/>
      <point x="688" y="1102" type="curve" smooth="yes"/>
      <point x="316" y="1102"/>
      <point x="72" y="881"/>
      <point x="72" y="551" type="curve" smooth="yes"/>
    </contour>
    <contour>
      <point x="355" y="551" type="line"/>
      <point x="355" y="752"/>
      <point x="480" y="867"/>
      <point x="688" y="867" type="curve" smooth="yes"/>
      <point x="899" y="867"/>
      <point x="1023" y="752"/>
      <point x="1023" y="551" type="curve" smooth="yes"/>
      <point x="1023" y="530" type="line" smooth="yes"/>
      <point x="1023" y="325"/>
      <point x="898" y="215"/>
      <point x="690" y="215" type="curve" smooth="yes"/>
      <point x="479" y="215"/>
      <point x="355" y="325"/>
      <point x="355" y="530" type="curve" smooth="yes"/>
    </contour>
    <contour>
      <point x="377" y="539" type="curve" smooth="yes"/>
      <point x="377" y="452"/>
      <point x="437" y="389"/>
      <point x="531" y="389" type="curve" smooth="yes"/>
      <point x="625" y="389"/>
      <point x="685" y="452"/>
      <point x="685" y="539" type="curve" smooth="yes"/>
      <point x="685" y="627"/>
      <point x="625" y="690"/>
      <point x="531" y="690" type="curve" smooth="yes"/>
      <point x="437" y="690"/>
      <point x="377" y="627"/>
    </contour>
    <contour>
      <point x="693" y="539" type="curve" smooth="yes"/>
      <point x="693" y="452"/>
      <point x="753" y="389"/>
      <point x="847" y="389" type="curve" smooth="yes"/>
      <point x="942" y="389"/>
      <point x="1002" y="452"/>
      <point x="1002" y="539" type="curve" smooth="yes"/>
      <point x="1002" y="627"/>
      <point x="942" y="690"/>
      <point x="847" y="690" type="curve" smooth="yes"/>
      <point x="753" y="690"/>
      <point x="693" y="627"/>
    </contour>
  </outline>
</glyph>
<glyph name="uniA723" format="2">
  <advance width="518"/>
  <unicode hex="A723"/>
  <outline>
    <contour>
      <point x="91" y="907" type="line"/>
      <point x="143" y="907" type="line" smooth="yes"/>
      <point x="190" y="907"/>
      <point x="212" y="893"/>
      <point x="212" y="853" type="curve" smooth="yes"/>
      <point x="212" y="802"/>
      <point x="172" y="778"/>
      <point x="83" y="733" type="curve"/>
      <point x="138" y="559" type="line"/>
      <point x="345" y="644"/>
      <point x="454" y="714"/>
      <point x="454" y="853" type="curve" smooth="yes"/>
      <point x="454" y="990"/>
      <point x="366" y="1082"/>
      <point x="143" y="1082" type="curve" smooth="yes"/>
      <point x="90" y="1082" type="line"/>
    </contour>
    <contour>
      <point x="91" y="328" type="line"/>
      <point x="143" y="328" type="line" smooth="yes"/>
      <point x="190" y="328"/>
      <point x="212" y="314"/>
      <point x="212" y="274" type="curve" smooth="yes"/>
      <point x="212" y="223"/>
      <point x="172" y="199"/>
      <point x="83" y="154" type="curve"/>
      <point x="138" y="-20" type="line"/>
      <point x="345" y="65"/>
      <point x="454" y="135"/>
      <point x="454" y="274" type="curve" smooth="yes"/>
      <point x="454" y="411"/>
      <point x="366" y="503"/>
      <point x="143" y="503" type="curve" smooth="yes"/>
      <point x="90" y="503" type="line"/>
    </contour>
  </outline>
</glyph>
<glyph name="uniA72E" format="2">
  <advance width="1193"/>
  <unicode hex="A72E"/>
  <outline>
    <contour>
      <point x="1000" y="550" type="line"/>
      <point x="339" y="550" type="line"/>
      <point x="552" y="1026" type="line"/>
      <point x="780" y="1456" type="line"/>
      <point x="557" y="1456" type="line"/>
      <point x="63" y="499" type="line"/>
      <point x="76" y="314" type="line"/>
      <point x="1000" y="314" type="line"/>
    </contour>
    <contour>
      <point x="842" y="1456" type="line"/>
      <point x="559" y="1456" type="line"/>
      <point x="559" y="351" type="line"/>
      <point x="842" y="351" type="line"/>
    </contour>
    <contour>
      <point x="559" y="525" type="line"/>
      <point x="559" y="312" type="line" smooth="yes"/>
      <point x="559" y="242"/>
      <point x="512" y="219"/>
      <point x="429" y="219" type="curve" smooth="yes"/>
      <point x="391" y="219"/>
      <point x="356" y="225"/>
      <point x="330" y="230" type="curve"/>
      <point x="332" y="-1" type="line"/>
      <point x="375" y="-13"/>
      <point x="441" y="-20"/>
      <point x="522" y="-20" type="curve" smooth="yes"/>
      <point x="686" y="-20"/>
      <point x="842" y="47"/>
      <point x="842" y="324" type="curve" smooth="yes"/>
      <point x="842" y="525" type="line"/>
    </contour>
    <contour>
      <point x="1115" y="194" type="line"/>
      <point x="910" y="194" type="line"/>
      <point x="910" y="108" type="line" smooth="yes"/>
      <point x="910" y="-6"/>
      <point x="884" y="-80"/>
      <point x="846" y="-152" type="curve"/>
      <point x="983" y="-231" type="line"/>
      <point x="1058" y="-147"/>
      <point x="1115" y="-4"/>
      <point x="1115" y="123" type="curve" smooth="yes"/>
    </contour>
  </outline>
</glyph>
<glyph name="uniA77E" format="2">
  <advance width="1114"/>
  <unicode hex="A77E"/>
  <outline>
    <contour>
      <point x="21" y="-5" type="line"/>
      <point x="1015" y="-5" type="line"/>
      <point x="1015" y="239" type="line"/>
      <point x="21" y="239" type="line"/>
    </contour>
    <contour>
      <point x="476" y="1471" type="curve" smooth="yes"/>
      <point x="199" y="1471"/>
      <point x="26" y="1322"/>
      <point x="26" y="1066" type="curve" smooth="yes"/>
      <point x="26" y="827"/>
      <point x="160" y="690"/>
      <point x="432" y="593" type="curve" smooth="yes"/>
      <point x="563" y="537"/>
      <point x="649" y="479"/>
      <point x="649" y="383" type="curve" smooth="yes"/>
      <point x="649" y="296"/>
      <point x="608" y="214"/>
      <point x="512" y="198" type="curve"/>
      <point x="711" y="69" type="line"/>
      <point x="823" y="113"/>
      <point x="943" y="237"/>
      <point x="943" y="382" type="curve" smooth="yes"/>
      <point x="943" y="635"/>
      <point x="751" y="755"/>
      <point x="532" y="840" type="curve" smooth="yes"/>
      <point x="350" y="915"/>
      <point x="321" y="967"/>
      <point x="321" y="1068" type="curve" smooth="yes"/>
      <point x="321" y="1161"/>
      <point x="363" y="1232"/>
      <point x="476" y="1232" type="curve" smooth="yes"/>
      <point x="614" y="1232"/>
      <point x="685" y="1167"/>
      <point x="685" y="991" type="curve"/>
      <point x="980" y="991" type="line"/>
      <point x="980" y="1322"/>
      <point x="726" y="1471"/>
    </contour>
  </outline>
</glyph>
<glyph name="uniAB3D" format="2">
  <advance width="984"/>
  <unicode hex="AB3D"/>
  <outline>
    <contour>
      <point x="104" y="877" type="line"/>
      <point x="104" y="65" type="line"/>
      <point x="597" y="-20" type="line"/>
      <point x="673" y="224" type="line"/>
      <point x="387" y="289" type="line"/>
      <point x="387" y="1103" type="line"/>
    </contour>
    <contour>
      <point x="880" y="206" type="line"/>
      <point x="880" y="1018" type="line"/>
      <point x="387" y="1103" type="line"/>
      <point x="311" y="859" type="line"/>
      <point x="597" y="794" type="line"/>
      <point x="597" y="-20" type="line"/>
    </contour>
  </outline>
</glyph>
<glyph name="uniAB5C" format="2">
  <advance width="788"/>
  <unicode hex="AB5C"/>
  <outline>
    <contour>
      <point x="483" y="630" type="line"/>
      <point x="483" y="572"/>
      <point x="457" y="536"/>
      <point x="400" y="536" type="curve" smooth="yes"/>
      <point x="383" y="536"/>
      <point x="366" y="539"/>
      <point x="350" y="543" type="curve"/>
      <point x="350" y="351" type="line"/>
      <point x="394" y="342"/>
      <point x="440" y="338"/>
      <point x="481" y="338" type="curve" smooth="yes"/>
      <point x="611" y="338"/>
      <point x="688" y="400"/>
      <point x="688" y="607" type="curve" smooth="yes"/>
      <point x="688" y="887" type="line"/>
      <point x="483" y="887" type="line"/>
    </contour>
    <contour>
      <point x="306" y="1876" type="line"/>
      <point x="101" y="1876" type="line"/>
      <point x="101" y="654" type="line"/>
      <point x="306" y="654" type="line"/>
    </contour>
    <contour>
      <point x="283" y="1078" type="line"/>
      <point x="283" y="1193"/>
      <point x="308" y="1283"/>
      <point x="394" y="1283" type="curve" smooth="yes"/>
      <point x="453" y="1283"/>
      <point x="483" y="1234"/>
      <point x="483" y="1093" type="curve" smooth="yes"/>
      <point x="483" y="654" type="line"/>
      <point x="688" y="654" type="line"/>
      <point x="688" y="1159" type="line" smooth="yes"/>
      <point x="688" y="1375"/>
      <point x="607" y="1466"/>
      <point x="471" y="1466" type="curve" smooth="yes"/>
      <point x="323" y="1466"/>
      <point x="242" y="1302"/>
      <point x="242" y="1077" type="curve"/>
    </contour>
  </outline>
</glyph>
<glyph name="D.cn" format="2">
  <advance width="1157"/>
  <outline>
    <contour>
      <point x="499" y="0" type="line"/>
      <point x="840" y="0"/>
      <point x="1072" y="280"/>
      <point x="1072" y="695" type="curve"/>
      <point x="1072" y="760" type="line"/>
      <point x="1072" y="1176"/>
      <point x="839" y="1456"/>
      <point x="502" y="1456" type="curve"/>
      <point x="236" y="1456" type="line"/>
      <point x="236" y="1211" type="line"/>
      <point x="502" y="1211" type="line"/>
      <point x="685" y="1211"/>
      <point x="773" y="1055"/>
      <point x="773" y="762" type="curve"/>
      <point x="773" y="695" type="line" smooth="yes"/>
      <point x="773" y="405"/>
      <point x="685" y="244"/>
      <point x="499" y="244" type="curve"/>
      <point x="243" y="244" type="line"/>
      <point x="241" y="0" type="line"/>
    </contour>
    <contour>
      <point x="412" y="1456" type="line"/>
      <point x="117" y="1456" type="line"/>
      <point x="117" y="0" type="line"/>
      <point x="412" y="0" type="line"/>
    </contour>
  </outline>
</glyph>
<glyph name="N.unic" format="2">
  <advance width="1257"/>
  <anchor x="647" y="1630" name="top"/>
  <anchor x="645" y="3" name="bottom"/>
  <anchor x="1237" y="1600" name="top_dd"/>
  <anchor x="1237" y="-407" name="bottom_dd"/>
  <anchor x="1237" y="1630" name="top0315"/>
  <anchor x="647" y="1630" name="parent_top"/>
  <outline>
    <contour>
      <point x="397" y="852" type="line"/>
      <point x="395" y="1062"/>
      <point x="515" y="1223"/>
      <point x="657" y="1223" type="curve" smooth="yes"/>
      <point x="780" y="1223"/>
      <point x="845" y="1148"/>
      <point x="845" y="930" type="curve" smooth="yes"/>
      <point x="845" y="0" type="line"/>
      <point x="1138" y="0" type="line"/>
      <point x="1138" y="965" type="line" smooth="yes"/>
      <point x="1138" y="1335"/>
      <point x="990" y="1476"/>
      <point x="757" y="1476" type="curve" smooth="yes"/>
      <point x="447" y="1476"/>
      <point x="249" y="1186"/>
      <point x="255" y="872" type="curve"/>
    </contour>
    <contour>
      <point x="412" y="1225" type="line"/>
      <point x="394" y="1456" type="line"/>
      <point x="117" y="1456" type="line"/>
      <point x="117" y="0" type="line"/>
      <point x="412" y="0" type="line"/>
    </contour>
  </outline>
</glyph>
<glyph name="b.ss06" format="2">
  <advance width="1030"/>
  <outline>
    <contour>
      <point x="104" y="1536" type="line"/>
      <point x="104" y="0" type="line"/>
      <point x="349" y="0" type="line"/>
      <point x="386" y="252" type="line"/>
      <point x="386" y="1536" type="line"/>
    </contour>
    <contour>
      <point x="964" y="550" type="line"/>
      <point x="964" y="879"/>
      <point x="833" y="1102"/>
      <point x="590" y="1102" type="curve" smooth="yes"/>
      <point x="363" y="1102"/>
      <point x="272" y="870"/>
      <point x="240" y="553" type="curve"/>
      <point x="240" y="518" type="line"/>
      <point x="274" y="216"/>
      <point x="364" y="-20"/>
      <point x="592" y="-20" type="curve" smooth="yes"/>
      <point x="832" y="-20"/>
      <point x="964" y="214"/>
      <point x="964" y="529" type="curve" smooth="yes"/>
    </contour>
    <contour>
      <point x="681" y="529" type="line"/>
      <point x="681" y="356"/>
      <point x="642" y="216"/>
      <point x="518" y="216" type="curve" smooth="yes"/>
      <point x="398" y="216"/>
      <point x="351" y="327"/>
      <point x="349" y="477" type="curve"/>
      <point x="349" y="594" type="line"/>
      <point x="352" y="763"/>
      <point x="405" y="866"/>
      <point x="516" y="866" type="curve" smooth="yes"/>
      <point x="639" y="866"/>
      <point x="681" y="731"/>
      <point x="681" y="550" type="curve" smooth="yes"/>
    </contour>
  </outline>
</glyph>
<glyph name="iotasubnosp_uni1ABD" format="2">
  <anchor x="-480" y="0" name="_bottom"/>
  <anchor x="-480" y="-527" name="bottom"/>
  <outline>
    <contour>
      <point x="-736" y="-522" type="curve"/>
      <point x="-718" y="-445" type="line"/>
      <point x="-755" y="-423"/>
      <point x="-800" y="-388"/>
      <point x="-800" y="-308" type="curve" smooth="yes"/>
      <point x="-800" y="-233"/>
      <point x="-757" y="-197"/>
      <point x="-718" y="-174" type="curve"/>
      <point x="-736" y="-97" type="line"/>
      <point x="-807" y="-117"/>
      <point x="-899" y="-192"/>
      <point x="-899" y="-308" type="curve" smooth="yes"/>
      <point x="-899" y="-428"/>
      <point x="-807" y="-501"/>
    </contour>
    <contour>
      <point x="-156" y="-522" type="line"/>
      <point x="-86" y="-501"/>
      <point x="7" y="-428"/>
      <point x="7" y="-308" type="curve" smooth="yes"/>
      <point x="7" y="-190"/>
      <point x="-86" y="-117"/>
      <point x="-156" y="-97" type="curve"/>
      <point x="-174" y="-174" type="line"/>
      <point x="-135" y="-197"/>
      <point x="-92" y="-230"/>
      <point x="-92" y="-308" type="curve" smooth="yes"/>
      <point x="-92" y="-389"/>
      <point x="-137" y="-423"/>
      <point x="-174" y="-445" type="curve"/>
    </contour>
    <contour>
      <point x="-563" y="-70" type="line"/>
      <point x="-563" y="-338" type="line" smooth="yes"/>
      <point x="-563" y="-471"/>
      <point x="-489" y="-526"/>
      <point x="-397" y="-526" type="curve" smooth="yes"/>
      <point x="-364" y="-526"/>
      <point x="-338" y="-521"/>
      <point x="-317" y="-512" type="curve"/>
      <point x="-316" y="-394" type="line"/>
      <point x="-324" y="-396"/>
      <point x="-335" y="-398"/>
      <point x="-350" y="-398" type="curve" smooth="yes"/>
      <point x="-382" y="-398"/>
      <point x="-393" y="-383"/>
      <point x="-393" y="-336" type="curve" smooth="yes"/>
      <point x="-393" y="-70" type="line"/>
    </contour>
  </outline>
</glyph>
<glyph name="rrthook_uni1ABE" format="2">
  <advance width="990"/>
  <outline>
    <contour>
      <point x="243" y="248" type="line"/>
      <point x="243" y="-93" type="line" smooth="yes"/>
      <point x="243" y="-382"/>
      <point x="439" y="-436"/>
      <point x="582" y="-436" type="curve" smooth="yes"/>
      <point x="638" y="-436"/>
      <point x="680" y="-431"/>
      <point x="716" y="-422" type="curve"/>
      <point x="718" y="-227" type="line"/>
      <point x="697" y="-231"/>
      <point x="679" y="-233"/>
      <point x="660" y="-233" type="curve" smooth="yes"/>
      <point x="604" y="-233"/>
      <point x="526" y="-204"/>
      <point x="526" y="-93" type="curve" smooth="yes"/>
      <point x="526" y="248" type="line"/>
    </contour>
    <contour>
      <point x="526" y="839" type="line"/>
      <point x="509" y="1082" type="line"/>
      <point x="243" y="1082" type="line"/>
      <point x="243" y="0" type="line"/>
      <point x="526" y="0" type="line"/>
    </contour>
    <contour>
      <point x="780" y="1090" type="line"/>
      <point x="761" y="1097"/>
      <point x="727" y="1102"/>
      <point x="702" y="1102" type="curve"/>
      <point x="542" y="1102"/>
      <point x="451" y="898"/>
      <point x="451" y="616" type="curve"/>
      <point x="504" y="594" type="line"/>
      <point x="509" y="738"/>
      <point x="562" y="817"/>
      <point x="683" y="817" type="curve"/>
      <point x="711" y="817"/>
      <point x="751" y="813"/>
      <point x="777" y="809" type="curve"/>
    </contour>
    <contour>
      <point x="187" y="-522" type="curve"/>
      <point x="205" y="-445" type="line"/>
      <point x="168" y="-423"/>
      <point x="123" y="-389"/>
      <point x="123" y="-308" type="curve" smooth="yes"/>
      <point x="123" y="-233"/>
      <point x="166" y="-198"/>
      <point x="205" y="-174" type="curve"/>
      <point x="187" y="-97" type="line"/>
      <point x="117" y="-117"/>
      <point x="24" y="-192"/>
      <point x="24" y="-309" type="curve" smooth="yes"/>
      <point x="24" y="-428"/>
      <point x="117" y="-501"/>
    </contour>
    <contour>
      <point x="802" y="-522" type="line"/>
      <point x="873" y="-501"/>
      <point x="966" y="-428"/>
      <point x="966" y="-309" type="curve" smooth="yes"/>
      <point x="966" y="-191"/>
      <point x="873" y="-117"/>
      <point x="802" y="-97" type="curve"/>
      <point x="785" y="-174" type="line"/>
      <point x="824" y="-198"/>
      <point x="867" y="-231"/>
      <point x="867" y="-308" type="curve" smooth="yes"/>
      <point x="867" y="-389"/>
      <point x="822" y="-423"/>
      <point x="785" y="-445" type="curve"/>
    </contour>
  </outline>
</glyph>
<glyph name="uni02E6_uni02E5_uni02E9" format="2">
  <advance width="1141"/>
  <outline>
    <contour>
      <point x="1022" y="0" type="line"/>
      <point x="1022" y="1456" type="line"/>
      <point x="739" y="1456" type="line"/>
      <point x="739" y="673" type="line"/>
      <point x="542" y="1456" type="line"/>
      <point x="180" y="1083" type="line"/>
      <point x="324" y="915" type="line"/>
      <point x="449" y="1068" type="line"/>
      <point x="739" y="0" type="line"/>
    </contour>
  </outline>
</glyph>
<glyph name="uni0402.smcp" format="2">
  <advance width="1280"/>
  <outline>
    <contour>
      <point x="886" y="1165" type="line"/>
      <point x="48" y="1165" type="line"/>
      <point x="48" y="930" type="line"/>
      <point x="886" y="930" type="line"/>
    </contour>
    <contour>
      <point x="324" y="0" type="line"/>
      <point x="608" y="0" type="line"/>
      <point x="608" y="1165" type="line"/>
      <point x="324" y="1165" type="line"/>
    </contour>
    <contour>
      <point x="498" y="473" type="line"/>
      <point x="598" y="512"/>
      <point x="683" y="535"/>
      <point x="767" y="535" type="curve" smooth="yes"/>
      <point x="878" y="535"/>
      <point x="934" y="482"/>
      <point x="934" y="353" type="curve" smooth="yes"/>
      <point x="934" y="237"/>
      <point x="885" y="202"/>
      <point x="787" y="202" type="curve"/>
      <point x="787" y="-20" type="line"/>
      <point x="1070" y="-20"/>
      <point x="1217" y="108"/>
      <point x="1217" y="359" type="curve" smooth="yes"/>
      <point x="1217" y="644"/>
      <point x="1037" y="770"/>
      <point x="804" y="770" type="curve" smooth="yes"/>
      <point x="690" y="770"/>
      <point x="555" y="736"/>
      <point x="498" y="703" type="curve"/>
    </contour>
  </outline>
</glyph>
